<svg xmlns="http://www.w3.org/2000/svg" viewBox="0 0 21 21">
	<path fill="#EE3643" d="M13.273,10.5l7.422-7.422c0.389-0.389,0.389-1.025,0-1.414l-1.359-1.359c-0.389-0.389-1.025-0.389-1.414,0
		L10.5,7.727L3.078,0.305c-0.389-0.389-1.025-0.389-1.414,0L0.305,1.664c-0.389,0.389-0.389,1.025,0,1.414L7.727,10.5l-7.421,7.422
		c-0.389,0.389-0.389,1.025,0,1.414l1.359,1.359c0.389,0.389,1.025,0.389,1.414,0l7.422-7.422l7.422,7.422
		c0.389,0.389,1.025,0.389,1.414,0l1.359-1.359c0.389-0.389,0.389-1.025,0-1.414L13.273,10.5z"/>
</svg>
